# xmcd
#
# Track frame offsets: 
#        150
#        16770
#        39573
#        57126
#        70301
#        90026
#        106509
#        126297
#        141262
#        158551
#        171232
#        191551
#        208792
#        220335
#
# Disc length: 3191 seconds
#
# Revision: 7
# Processed by: cddbd v1.5.2PL0 Copyright (c) Steve Scherf et al.
# Submitted via: ExactAudioCopy v1.3
#
DISCID=b80c750e
DTITLE=Nitty Gritty Dirt Band, The - Will the Circle Be Unbroken, Vol.
DTITLE=III (Disc1)
DYEAR=2002
DGENRE=Country
TTITLE0=Del McCoury, Nitty Gritty Dirt Band - Take Me in Your Lifeboat
TTITLE1=Doc Watson, Nitty Gritty Dirt Band - Milk Cow Blues
TTITLE2=Nitty Gritty Dirt Band - I Find Jesus
TTITLE3=Jimmy Martin, Nitty Gritty Dirt Band - Hold Watcha Got
TTITLE4=Iris DeMent, Nitty Gritty Dirt Band - Mama's Opry
TTITLE5=June Carter Cash, Earl Scruggs, Nitty Gritty Dirt Band - Diamo
TTITLE5=nds in the Rough
TTITLE6=Sam Bush, Nitty Gritty Dirt Band - Lonesome River
TTITLE7=Dwight Yoakam, Nitty Gritty Dirt Band - Some Dark Holler
TTITLE8=Jaime Hanna, Jonathan McEuen, Nitty Gritty Dirt Band - Lowland
TTITLE8=s, The
TTITLE9=Del McCoury, Nitty Gritty Dirt Band - Love, Please Come Home
TTITLE10=Willie Nelson, Tom Petty, Nitty Gritty Dirt Band - Goodnight 
TTITLE10=Irene
TTITLE11=The Nashville Bluegrass Band, Nitty Gritty Dirt Band - I Know
TTITLE11=What It Means to Be Lonesome 
TTITLE12=Emmylou Harris, Nitty Gritty Dirt Band - I'll Be Faithful to 
TTITLE12=You
TTITLE13=Johnny Cash, Nitty Gritty Dirt Band - Tears in the Holston Ri
TTITLE13=ver
EXTD=(c)2002 Capitol Records Nashville\nupc 724354017704
EXTT0=Del McCoury
EXTT1=Doc Watson
EXTT2=
EXTT3=Jimmy Martin
EXTT4=Iris DeMent
EXTT5=June Carter Cash
EXTT6=Sam Bush
EXTT7=Dwight Yoakam
EXTT8=
EXTT9=Del McCoury
EXTT10=Willie Nelson, Tom Petty
EXTT11=Nashville Bluegrass Band
EXTT12=Emmylou Harris
EXTT13=Johnny Cash
PLAYORDER=
